@startuml

class BaseConverter {
}
class ReqifConverter extends BaseConverter {
    +get_subcommand() : str
    +get_description() : str
    +register(args_parser: Any) : None
    +begin() : Ret
    +enter_file(file_name: str) : Ret
    +leave_file(file_name: str) : Ret
    +convert_section(section: str, level: int) : Ret
    +convert_record_object_generic(record: Record_Object, level: int, translation: Optional[dict]) : Ret
    +finish() : Ret
}


package "Dependencies" {

    class "trlc" <<(M ,lightblue) module>>{
    }

    note right of "trlc"
        Use TRLC ast items:
        * Implicit_Null
        * Record_Object
        * Record_Reference
        * String_Literal
        * Expression
    end note

    class TrlcAstWalker {
    }

    class Md2ReqifRenderer {
        + render(ast: Any) : str
    }

    class Gfm2ReqifRenderer extends Md2ReqifRenderer {
    }

    class "marko" <<(M ,lightblue) module>> {
    }
    note bottom of "marko"
        Markdown Parser
    end note

    class PlantUML {
    }
    note bottom of PlantUML
        Renders inline ```plantuml```
        fenced code blocks to SVG.
    end note

    class "reqif" <<(M ,lightblue) module>> {
    }
}

ReqifConverter ..> "trlc"
ReqifConverter ..> TrlcAstWalker
ReqifConverter ..> Md2ReqifRenderer
ReqifConverter ..> Gfm2ReqifRenderer
ReqifConverter ..> "marko"
ReqifConverter ..> "reqif"
Md2ReqifRenderer ..> PlantUML

@enduml
